<svg width="18" height="25" viewBox="0 0 18 25" fill="none" xmlns="http://www.w3.org/2000/svg">
<path d="M13 14.6001V23.4001L9 21.8001L5 23.4001V14.6001" stroke="#091C3F" stroke-opacity="0.45" stroke-width="1.5" stroke-linecap="round" stroke-linejoin="round"/>
<path fill-rule="evenodd" clip-rule="evenodd" d="M3.4 3.4H6.6L9 1L11.4 3.4H14.6V6.6L17 9L14.6 11.4V14.6H11.4L9 17L6.6 14.6H3.4V11.4L1 9L3.4 6.6V3.4V3.4Z" stroke="#091C3F" stroke-opacity="0.45" stroke-width="1.5" stroke-linecap="round" stroke-linejoin="round"/>
<path fill-rule="evenodd" clip-rule="evenodd" d="M6.59961 9.0001C6.59961 7.6745 7.67401 6.6001 8.99961 6.6001C10.3252 6.6001 11.3996 7.6745 11.3996 9.0001C11.3996 10.3257 10.3252 11.4001 8.99961 11.4001C7.67401 11.4001 6.59961 10.3257 6.59961 9.0001V9.0001Z" stroke="#091C3F" stroke-opacity="0.45" stroke-width="1.5" stroke-linecap="round" stroke-linejoin="round"/>
</svg>
