<svg width="24" height="24" viewBox="0 0 24 24" fill="none" xmlns="http://www.w3.org/2000/svg">
<path d="M7.52434 15.825V11.819H6.34183C5.64198 11.819 5.25586 11.4329 5.25586 10.733V10.6848C5.25586 10.009 5.64198 9.62293 6.34183 9.62293H7.52434V8.22323C7.52434 6.94419 7.16235 6.5822 6.29357 6.48567C5.66612 6.41327 5.25586 6.09955 5.25586 5.30317V5.2549C5.25586 4.43439 5.81091 4 6.77622 4C9.16536 4 10.2513 5.71342 10.2513 8.1267V9.62293H10.6375C11.3132 9.62293 11.6752 10.009 11.6752 10.6848V10.733C11.6752 11.4329 11.3132 11.819 10.6375 11.819H10.2513V15.825C10.2513 17.1041 11.1925 17.5626 12.3509 17.5626C14.7642 17.5626 16.2121 15.7285 16.2121 13.1704C16.2121 12.2534 16.0191 11.5777 15.5605 11.3363C15.5123 12.2775 15.0537 12.905 14.016 12.905C12.9059 12.905 12.2302 12.2534 12.2302 11.1192C12.2302 9.5264 13.3162 8.82655 14.8366 8.82655C17.4188 8.82655 18.7461 10.5882 18.7461 13.267C18.7461 16.8386 16.6948 20 12.3509 20C9.57562 20 7.52434 18.6244 7.52434 15.825Z" fill="#37474F"/>
</svg>
