<svg width="20" height="20" viewBox="0 0 20 20" fill="none" xmlns="http://www.w3.org/2000/svg">
<path fill-rule="evenodd" clip-rule="evenodd" d="M17.1287 5.76208C17.4478 5.44299 17.4478 4.92753 17.1287 4.60844L15.2141 2.6939C15.0613 2.54069 14.8537 2.45459 14.6373 2.45459C14.4209 2.45459 14.2134 2.54069 14.0605 2.6939L12.5632 4.19117L15.6314 7.25935L17.1287 5.76208ZM2.63867 14.2875V16.7748C2.63867 17.0039 2.81867 17.1839 3.04776 17.1839H5.53504C5.6414 17.1839 5.74776 17.143 5.8214 17.0612L14.7559 8.13481L11.6878 5.06662L2.7614 13.993C2.67958 14.0748 2.63867 14.173 2.63867 14.2875ZM12.4405 8.13277L11.6878 7.38005L4.27504 14.7928V15.5455H5.02776L12.4405 8.13277Z" fill="white"/>
</svg>
