<svg width="19" height="19" viewBox="0 0 19 19" fill="none" xmlns="http://www.w3.org/2000/svg">
<path fill-rule="evenodd" clip-rule="evenodd" d="M14.3224 2.01796C13.8854 1.77255 13.4199 1.7488 12.9283 1.80976C12.4612 1.86834 11.892 2.01559 11.2088 2.19371L9.61043 2.60855C8.92722 2.78667 8.3588 2.93392 7.92418 3.11046C7.4658 3.29571 7.06997 3.5443 6.81347 3.97575C6.55539 4.40959 6.53005 4.87351 6.59418 5.35801C6.65514 5.8148 6.80793 6.36896 6.99001 7.02921L7.41989 8.58405C7.60197 9.24509 7.75555 9.79846 7.93843 10.2228C8.13239 10.674 8.39126 11.058 8.83143 11.305C9.26843 11.5496 9.73393 11.5742 10.2263 11.5124C10.6934 11.4546 11.2626 11.3066 11.9458 11.1285L13.5442 10.7136C14.2274 10.5363 14.7958 10.3883 15.2305 10.2117C15.6888 10.0265 16.0847 9.77788 16.3412 9.34642C16.5993 8.91259 16.6246 8.44867 16.5605 7.96496C16.4995 7.50817 16.3467 6.95321 16.1646 6.29296L15.7348 4.73813C15.5527 4.07788 15.3991 3.52371 15.2162 3.09938C15.0223 2.64813 14.7618 2.26417 14.3224 2.01796ZM11.4685 3.35271C12.2008 3.16271 12.694 3.03605 13.0756 2.98855C13.4405 2.94263 13.6155 2.98301 13.7429 3.05426C13.8672 3.12392 13.9868 3.24505 14.1253 3.56884C14.2718 3.90926 14.4048 4.38346 14.6011 5.09438L15.008 6.56926C15.2051 7.28017 15.335 7.75517 15.3833 8.12092C15.4292 8.46846 15.388 8.626 15.3199 8.73921C15.2511 8.85559 15.126 8.97355 14.7856 9.1113C14.4309 9.25459 13.9385 9.38442 13.2062 9.57442L11.6862 9.96946C10.9539 10.1595 10.4607 10.2861 10.0791 10.3336C9.71334 10.3803 9.53918 10.34 9.41172 10.2687C9.28743 10.199 9.16789 10.0771 9.02934 9.75413C8.88289 9.41371 8.74989 8.93871 8.55355 8.2278L8.14664 6.75371C7.94951 6.04121 7.81968 5.56701 7.77139 5.20205C7.72547 4.85371 7.76664 4.69696 7.83472 4.58296C7.90359 4.46659 8.02868 4.34863 8.36909 4.21088C8.72376 4.06759 9.21618 3.93855 9.94847 3.74776L11.4685 3.35271Z" fill="#868686"/>
<path fill-rule="evenodd" clip-rule="evenodd" d="M2.53396 3.74065C2.38397 3.70388 2.22556 3.72699 2.09234 3.80508C1.95911 3.88317 1.86155 4.01009 1.82035 4.15892C1.77915 4.30775 1.79756 4.46677 1.87166 4.60226C1.94577 4.73774 2.06975 4.83902 2.21729 4.88461L3.5655 5.25907C3.90275 5.35248 4.15371 5.6074 4.23921 5.91694L5.78454 11.5085C5.72475 11.5203 5.66534 11.5341 5.60642 11.5497C4.04129 11.9558 3.08496 13.5304 3.51404 15.086C3.94154 16.6337 5.56763 17.5259 7.12642 17.1206C8.49125 16.7667 9.39296 15.5246 9.31696 14.1819L15.9828 12.4498C16.0583 12.4302 16.1291 12.3959 16.1914 12.3489C16.2536 12.3019 16.306 12.2431 16.3455 12.1759C16.385 12.1087 16.4109 12.0343 16.4217 11.9571C16.4324 11.8799 16.4279 11.8013 16.4083 11.7258C16.3887 11.6503 16.3544 11.5794 16.3075 11.5172C16.2605 11.455 16.2017 11.4026 16.1345 11.3631C16.0672 11.3236 15.9929 11.2977 15.9156 11.2869C15.8384 11.2761 15.7598 11.2807 15.6843 11.3003L9.00425 13.0364C8.80441 12.6545 8.52315 12.3211 8.18034 12.0599C7.83754 11.7986 7.44154 11.6158 7.02033 11.5243L5.38396 5.60028C5.28351 5.24391 5.09245 4.91964 4.8294 4.65908C4.56634 4.39853 4.24027 4.21057 3.88296 4.11353L2.53475 3.73986L2.53396 3.74065ZM5.90567 12.6984C6.86517 12.4498 7.82783 13.0063 8.07483 13.9009C8.32025 14.7876 7.78192 15.7241 6.82875 15.9719C5.86925 16.2213 4.90658 15.6639 4.65958 14.7694C4.41417 13.8827 4.9525 12.9462 5.90567 12.6984Z" fill="#868686"/>
</svg>
