<svg width="32" height="21" viewBox="0 0 32 21" fill="none" xmlns="http://www.w3.org/2000/svg">
<path opacity="0.959" fill-rule="evenodd" clip-rule="evenodd" d="M32 15.75C32 16.0417 32 16.3333 32 16.625C31.8032 17.1238 31.449 17.4676 30.9375 17.6562C30 17.6771 29.0625 17.6979 28.125 17.7188C27.6319 19.7324 26.3507 20.8262 24.2812 21C22.1884 20.8336 20.928 19.7295 20.5 17.6875C18.2292 17.6875 15.9583 17.6875 13.6875 17.6875C13.2595 19.7295 11.9991 20.8336 9.90625 21C7.83681 20.8262 6.55556 19.7324 6.0625 17.7188C5.3125 17.6979 4.5625 17.6771 3.8125 17.6562C3.14352 17.4247 2.77893 16.9559 2.71875 16.25C2.6875 13.7501 2.67708 11.2501 2.6875 8.75C1.91282 8.77613 1.14199 8.74488 0.375 8.65625C0.217337 8.57125 0.092337 8.45669 0 8.3125C0 8.08331 0 7.85419 0 7.625C0.138807 7.42981 0.326307 7.29444 0.5625 7.21875C1.27052 7.1875 1.97886 7.17706 2.6875 7.1875C2.6875 6.625 2.6875 6.0625 2.6875 5.5C2.22463 5.52175 1.7663 5.4905 1.3125 5.40625C0.844344 5.09506 0.750594 4.68881 1.03125 4.1875C1.08766 4.11244 1.16058 4.06031 1.25 4.03125C1.72378 3.944 2.20294 3.91275 2.6875 3.9375C2.67709 3.12475 2.68751 2.31225 2.71875 1.5C2.83333 0.63542 3.32292 0.145833 4.1875 0.0312516C9.625 -0.0104172 15.0625 -0.0104172 20.5 0.0312516C21.3054 0.0756703 22.0762 0.26317 22.8125 0.593751C25.9862 2.20494 28.3924 4.59038 30.0312 7.75C30.2224 8.15669 30.3891 8.57338 30.5312 9C31.0428 11.2534 31.5324 13.5034 32 15.75ZM4.25 1.5625C9.4375 1.5625 14.625 1.5625 19.8125 1.5625C19.8021 4.39594 19.8125 7.22925 19.8438 10.0625C19.8876 10.3477 20.0439 10.5456 20.3125 10.6563C23.3333 10.6875 26.3541 10.6979 29.375 10.6875C29.7292 12.5208 30.0833 14.3542 30.4375 16.1875C29.625 16.1875 28.8125 16.1875 28 16.1875C27.4562 14.3429 26.2166 13.3638 24.2812 13.25C22.3493 13.3596 21.1098 14.3387 20.5625 16.1875C18.25 16.1875 15.9375 16.1875 13.625 16.1875C13.0778 14.3387 11.8382 13.3596 9.90625 13.25C7.97087 13.3638 6.73125 14.3429 6.1875 16.1875C5.54167 16.1875 4.89583 16.1875 4.25 16.1875C4.25 13.7083 4.25 11.2292 4.25 8.75C7.31256 8.76044 10.3751 8.75 13.4375 8.71875C14.0691 8.51825 14.2462 8.112 13.9688 7.5C13.8468 7.35038 13.6905 7.25663 13.5 7.21875C10.4167 7.1875 7.33337 7.17706 4.25 7.1875C4.25 6.625 4.25 6.0625 4.25 5.5C5.66682 5.51044 7.0835 5.5 8.5 5.46875C9.10169 5.29675 9.29956 4.91138 9.09375 4.3125C8.97656 4.14456 8.82031 4.02994 8.625 3.96875C7.16681 3.9375 5.70848 3.92706 4.25 3.9375C4.25 3.14581 4.25 2.35419 4.25 1.5625ZM21.375 1.75C21.9644 1.9195 22.5269 2.15913 23.0625 2.46875C25.6793 4.11013 27.6376 6.32888 28.9375 9.125C26.417 9.1875 23.8962 9.20831 21.375 9.1875C21.375 6.70831 21.375 4.22919 21.375 1.75ZM9.5625 14.8125C10.8836 14.7696 11.7481 15.3738 12.1562 16.625C12.3249 17.8819 11.8353 18.7673 10.6875 19.2812C9.38138 19.6124 8.41263 19.1854 7.78125 18C7.38263 16.8353 7.68469 15.8874 8.6875 15.1562C8.97163 15.0028 9.26325 14.8883 9.5625 14.8125ZM23.9375 14.8125C25.4958 14.7981 26.3916 15.5585 26.625 17.0938C26.4701 18.4987 25.6888 19.2799 24.2812 19.4375C23.0961 19.3253 22.3461 18.7003 22.0312 17.5625C21.9232 16.1201 22.5586 15.2034 23.9375 14.8125Z" fill="black"/>
</svg>
